<svg xmlns="http://www.w3.org/2000/svg" viewBox="0 0 32 32">
  <defs>
    <filter id="glow" x="-50%" y="-50%" width="200%" height="200%">
      <feGaussianBlur stdDeviation="1" result="coloredBlur"/>
      <feMerge>
        <feMergeNode in="coloredBlur"/>
        <feMergeNode in="SourceGraphic"/>
      </feMerge>
    </filter>
  </defs>
  
  <!-- Background -->
  <rect width="32" height="32" fill="#050b10"/>
  
  <!-- TC Monogram -->
  <g filter="url(#glow)" fill="#39ff14">
    <!-- T letter -->
    <rect x="4" y="8" width="12" height="2.5"/>
    <rect x="8.75" y="8" width="2.5" height="16"/>
    
    <!-- C letter -->
    <path d="M17 12.5
             C17 10.5 18.5 9 21 9
             C23.5 9 25 10 25.5 11
             L23.5 12.5
             C23 12 22.2 11.5 21 11.5
             C19.5 11.5 19 12.5 19 14
             L19 18
             C19 19.5 19.5 20.5 21 20.5
             C22.2 20.5 23 20 23.5 19.5
             L25.5 21
             C25 22 23.5 23 21 23
             C18.5 23 17 21.5 17 19.5
             Z"/>
  </g>
</svg>
